<?xml version="1.0" standalone="no"?><svg xmlns="http://www.w3.org/2000/svg" viewBox="0 0 1440 320"><linearGradient id="grad" x1="0%" y1="0%" x2="0%" y2="100%"><stop offset="0%" style="stop-color:rgb(0,190,255);stop-opacity:.3" /><stop offset="100%" style="stop-color:rgb(0,190,255);stop-opacity:.1" /></linearGradient><path fill="url(#grad)" fill-opacity="1" d="M0,160L24,165.3C48,171,96,181,144,181.3C192,181,240,171,288,138.7C336,107,384,53,432,58.7C480,64,528,128,576,133.3C624,139,672,85,720,53.3C768,21,816,11,864,48C912,85,960,171,1008,208C1056,245,1104,235,1152,202.7C1200,171,1248,117,1296,96C1344,75,1392,85,1416,90.7L1440,96L1440,0L1416,0C1392,0,1344,0,1296,0C1248,0,1200,0,1152,0C1104,0,1056,0,1008,0C960,0,912,0,864,0C816,0,768,0,720,0C672,0,624,0,576,0C528,0,480,0,432,0C384,0,336,0,288,0C240,0,192,0,144,0C96,0,48,0,24,0L0,0Z"></path></svg>