<?xml version="1.0" standalone="no"?><svg xmlns="http://www.w3.org/2000/svg" viewBox="0 0 1440 320"><linearGradient id="grad" x1="0%" y1="0%" x2="0%" y2="100%"><stop offset="0%" style="stop-color:rgb(0,190,255);stop-opacity:.1" /><stop offset="100%" style="stop-color:rgb(0,190,255);stop-opacity:1" /></linearGradient><path fill="url(#grad)" fill-opacity=".3" d="M0,224L24,192C48,160,96,96,144,96C192,96,240,160,288,192C336,224,384,224,432,218.7C480,213,528,203,576,208C624,213,672,235,720,245.3C768,256,816,256,864,250.7C912,245,960,235,1008,240C1056,245,1104,267,1152,282.7C1200,299,1248,309,1296,309.3C1344,309,1392,299,1416,293.3L1440,288L1440,320L1416,320C1392,320,1344,320,1296,320C1248,320,1200,320,1152,320C1104,320,1056,320,1008,320C960,320,912,320,864,320C816,320,768,320,720,320C672,320,624,320,576,320C528,320,480,320,432,320C384,320,336,320,288,320C240,320,192,320,144,320C96,320,48,320,24,320L0,320Z"></path></svg>